<?xml version="1.0" encoding="utf-8"?>
<!-- Generator: Adobe Illustrator 26.0.0, SVG Export Plug-In . SVG Version: 6.00 Build 0)  -->
<svg version="1.1" id="Layer_1" xmlns="http://www.w3.org/2000/svg" xmlns:xlink="http://www.w3.org/1999/xlink" x="0px" y="0px"
	 viewBox="0 0 1249.28 177.7" style="enable-background:new 0 0 1249.28 177.7;" xml:space="preserve">
<style type="text/css">
	.st0{fill:#ED2024;}
	.st1{fill:#6F6E6F;}
</style>
<polygon class="st0" points="151.74,58.68 105.06,58.68 105.06,12 56.42,12 56.42,58.68 9.74,58.68 9.74,107.31 56.42,107.31 
	56.42,153.99 105.06,153.99 105.06,107.31 151.74,107.31 "/>
<g>
	<path class="st1" d="M250.73,50.31c-0.39,5.44-2.4,9.73-6.03,12.85c-3.62,3.13-8.4,4.69-14.33,4.69c-6.48,0-11.58-2.18-15.3-6.55
		c-3.72-4.36-5.57-10.36-5.57-17.97v-3.09c0-4.86,0.86-9.15,2.57-12.85c1.71-3.7,4.16-6.55,7.35-8.53s6.88-2.97,11.1-2.97
		c5.83,0,10.54,1.56,14.1,4.69c3.57,3.13,5.63,7.51,6.18,13.16h-10.42c-0.25-3.26-1.16-5.63-2.73-7.1
		c-1.56-1.47-3.94-2.21-7.14-2.21c-3.47,0-6.07,1.25-7.8,3.73c-1.73,2.49-2.61,6.35-2.66,11.58v3.82c0,5.47,0.83,9.46,2.48,11.98
		c1.66,2.52,4.27,3.79,7.83,3.79c3.22,0,5.62-0.73,7.21-2.21c1.59-1.47,2.5-3.75,2.73-6.83H250.73z"/>
	<path class="st1" d="M278.03,38.99c-1.37-0.19-2.57-0.28-3.61-0.28c-3.8,0-6.29,1.29-7.47,3.86v24.59h-10.04V29.58h9.48l0.28,4.48
		c2.01-3.45,4.8-5.18,8.37-5.18c1.11,0,2.15,0.15,3.13,0.45L278.03,38.99z"/>
	<path class="st1" d="M305.36,63.34c-2.48,3.01-5.91,4.52-10.28,4.52c-4.03,0-7.1-1.16-9.22-3.47c-2.12-2.31-3.2-5.71-3.25-10.18
		V29.58h10.04v24.31c0,3.92,1.78,5.88,5.35,5.88c3.4,0,5.74-1.18,7.02-3.55V29.58h10.07v37.58h-9.45L305.36,63.34z"/>
	<path class="st1" d="M334.19,59.07h18.38v8.09h-31.19v-6.11l17.68-23.38h-17.16v-8.09h30.11v5.91L334.19,59.07z"/>
	<path class="st1" d="M395.95,48.65h-8.3v18.51h-10.42V16.59h18.79c5.97,0,10.58,1.33,13.82,3.99c3.24,2.66,4.86,6.43,4.86,11.29
		c0,3.45-0.75,6.33-2.24,8.63c-1.49,2.3-3.76,4.14-6.79,5.51l10.94,20.67v0.49h-11.18L395.95,48.65z M387.65,40.2h8.41
		c2.62,0,4.64-0.67,6.08-2c1.44-1.33,2.15-3.17,2.15-5.51c0-2.38-0.68-4.26-2.03-5.63c-1.35-1.37-3.43-2.05-6.23-2.05h-8.37V40.2z"
		/>
	<path class="st1" d="M420.4,48.02c0-3.73,0.72-7.05,2.15-9.97c1.44-2.92,3.5-5.18,6.2-6.77c2.7-1.6,5.83-2.4,9.4-2.4
		c5.07,0,9.21,1.55,12.42,4.65c3.21,3.1,5,7.32,5.37,12.64l0.07,2.57c0,5.77-1.61,10.39-4.83,13.88c-3.22,3.49-7.54,5.23-12.96,5.23
		c-5.42,0-9.74-1.74-12.97-5.21c-3.23-3.47-4.85-8.2-4.85-14.17V48.02z M430.44,48.73c0,3.57,0.67,6.3,2.01,8.19
		c1.34,1.89,3.27,2.83,5.77,2.83c2.43,0,4.33-0.93,5.7-2.8c1.37-1.87,2.05-4.85,2.05-8.96c0-3.5-0.68-6.22-2.05-8.14
		c-1.37-1.92-3.29-2.89-5.77-2.89c-2.45,0-4.35,0.96-5.7,2.87C431.11,41.76,430.44,44.72,430.44,48.73z"/>
	<path class="st1" d="M472.81,29.58v39.63c0,4.14-1.1,7.37-3.3,9.67c-2.2,2.3-5.37,3.46-9.52,3.46c-1.74,0-3.39-0.2-4.97-0.59v-7.95
		c1.2,0.21,2.26,0.31,3.16,0.31c3.03,0,4.55-1.61,4.55-4.83v-39.7H472.81z M461.94,19.85c0-1.5,0.5-2.74,1.51-3.72
		c1.01-0.97,2.38-1.46,4.12-1.46s3.11,0.49,4.12,1.46c1.01,0.97,1.51,2.21,1.51,3.72c0,1.53-0.52,2.78-1.55,3.75
		s-2.39,1.46-4.08,1.46s-3.05-0.49-4.08-1.46C462.46,22.63,461.94,21.38,461.94,19.85z"/>
	<path class="st1" d="M502.44,67.16c-0.46-0.9-0.8-2.03-1.01-3.37c-2.43,2.71-5.59,4.06-9.48,4.06c-3.68,0-6.73-1.06-9.15-3.2
		c-2.42-2.13-3.63-4.82-3.63-8.06c0-3.98,1.48-7.04,4.43-9.17c2.95-2.13,7.22-3.21,12.8-3.23h4.62v-2.15c0-1.74-0.45-3.13-1.34-4.17
		s-2.3-1.56-4.22-1.56c-1.69,0-3.02,0.41-3.98,1.22c-0.96,0.81-1.44,1.92-1.44,3.33H480c0-2.18,0.67-4.19,2.01-6.04
		c1.34-1.85,3.24-3.3,5.7-4.36c2.45-1.05,5.21-1.58,8.27-1.58c4.63,0,8.31,1.16,11.03,3.49c2.72,2.33,4.08,5.6,4.08,9.81v16.29
		c0.02,3.57,0.52,6.26,1.49,8.09v0.59H502.44z M494.14,60.18c1.48,0,2.85-0.33,4.1-0.99c1.25-0.66,2.18-1.55,2.78-2.66v-6.46h-3.75
		c-5.02,0-7.7,1.74-8.02,5.21l-0.03,0.59c0,1.25,0.44,2.28,1.32,3.09C491.41,59.77,492.61,60.18,494.14,60.18z"/>
	<path class="st1" d="M550.79,16.59l12.99,36.68l12.92-36.68h13.69v50.57h-10.46V53.33l1.04-23.86l-13.65,37.69h-7.16l-13.62-37.65
		l1.04,23.83v13.82h-10.42V16.59H550.79z"/>
	<path class="st1" d="M616.13,67.85c-5.51,0-10-1.69-13.46-5.07c-3.46-3.38-5.19-7.88-5.19-13.51V48.3c0-3.77,0.73-7.15,2.19-10.12
		c1.46-2.98,3.53-5.27,6.2-6.88c2.67-1.61,5.73-2.41,9.15-2.41c5.14,0,9.19,1.62,12.14,4.86c2.95,3.24,4.43,7.84,4.43,13.79v4.1
		h-23.93c0.32,2.45,1.3,4.42,2.94,5.9c1.63,1.48,3.7,2.22,6.2,2.22c3.87,0,6.89-1.4,9.07-4.2l4.93,5.52
		c-1.51,2.13-3.54,3.79-6.11,4.98S619.25,67.85,616.13,67.85z M614.98,36.98c-1.99,0-3.61,0.67-4.85,2.02
		c-1.24,1.35-2.03,3.28-2.38,5.79h13.96v-0.8c-0.05-2.23-0.65-3.96-1.81-5.18S617.11,36.98,614.98,36.98z"/>
	<path class="st1" d="M651.59,40.8l6.32-11.22h10.73l-10.7,18.41l11.15,19.17h-10.77l-6.7-11.81l-6.67,11.81h-10.8l11.15-19.17
		l-10.66-18.41h10.77L651.59,40.8z"/>
	<path class="st1" d="M673.4,19.85c0-1.5,0.5-2.74,1.51-3.72s2.38-1.46,4.12-1.46c1.71,0,3.08,0.49,4.1,1.46
		c1.02,0.97,1.53,2.21,1.53,3.72c0,1.53-0.52,2.78-1.55,3.75s-2.39,1.46-4.08,1.46c-1.69,0-3.05-0.49-4.08-1.46
		C673.92,22.63,673.4,21.38,673.4,19.85z M684.06,67.16h-10.07V29.58h10.07V67.16z"/>
	<path class="st1" d="M707.96,59.76c1.85,0,3.36-0.51,4.52-1.53c1.16-1.02,1.76-2.37,1.81-4.06h9.41c-0.02,2.55-0.72,4.88-2.08,7
		s-3.24,3.76-5.61,4.93c-2.37,1.17-5,1.75-7.87,1.75c-5.37,0-9.61-1.71-12.71-5.12c-3.1-3.42-4.65-8.13-4.65-14.15v-0.66
		c0-5.79,1.54-10.41,4.62-13.86c3.08-3.45,7.31-5.18,12.68-5.18c4.7,0,8.47,1.34,11.31,4.01c2.84,2.67,4.28,6.23,4.32,10.68h-9.41
		c-0.05-1.95-0.65-3.54-1.81-4.77c-1.16-1.22-2.69-1.83-4.58-1.83c-2.34,0-4.1,0.85-5.3,2.56c-1.19,1.7-1.79,4.47-1.79,8.3v1.04
		c0,3.87,0.59,6.66,1.77,8.35C703.76,58.91,705.55,59.76,707.96,59.76z"/>
	<path class="st1" d="M751.2,67.16c-0.46-0.9-0.8-2.03-1.01-3.37c-2.43,2.71-5.59,4.06-9.48,4.06c-3.68,0-6.73-1.06-9.15-3.2
		c-2.42-2.13-3.63-4.82-3.63-8.06c0-3.98,1.48-7.04,4.43-9.17c2.95-2.13,7.22-3.21,12.8-3.23h4.62v-2.15c0-1.74-0.45-3.13-1.34-4.17
		s-2.3-1.56-4.22-1.56c-1.69,0-3.02,0.41-3.98,1.22c-0.96,0.81-1.44,1.92-1.44,3.33h-10.04c0-2.18,0.67-4.19,2.01-6.04
		c1.34-1.85,3.24-3.3,5.7-4.36c2.45-1.05,5.21-1.58,8.27-1.58c4.63,0,8.31,1.16,11.03,3.49c2.72,2.33,4.08,5.6,4.08,9.81v16.29
		c0.02,3.57,0.52,6.26,1.49,8.09v0.59H751.2z M742.9,60.18c1.48,0,2.85-0.33,4.1-0.99c1.25-0.66,2.18-1.55,2.78-2.66v-6.46h-3.75
		c-5.02,0-7.7,1.74-8.02,5.21l-0.03,0.59c0,1.25,0.44,2.28,1.32,3.09C740.17,59.77,741.37,60.18,742.9,60.18z"/>
	<path class="st1" d="M776.8,29.58l0.31,4.34c2.69-3.36,6.29-5.04,10.8-5.04c3.98,0,6.95,1.17,8.89,3.51
		c1.95,2.34,2.94,5.84,2.99,10.49v24.28h-10.04V43.12c0-2.13-0.46-3.68-1.39-4.64c-0.93-0.96-2.47-1.44-4.62-1.44
		c-2.83,0-4.94,1.2-6.36,3.61v26.5h-10.04V29.58H776.8z"/>
	<path class="st1" d="M829.18,67.16c-0.46-0.9-0.8-2.03-1.01-3.37c-2.43,2.71-5.59,4.06-9.48,4.06c-3.68,0-6.73-1.06-9.15-3.2
		c-2.42-2.13-3.63-4.82-3.63-8.06c0-3.98,1.48-7.04,4.43-9.17c2.95-2.13,7.22-3.21,12.8-3.23h4.62v-2.15c0-1.74-0.45-3.13-1.34-4.17
		s-2.3-1.56-4.22-1.56c-1.69,0-3.02,0.41-3.98,1.22c-0.96,0.81-1.44,1.92-1.44,3.33h-10.04c0-2.18,0.67-4.19,2.01-6.04
		c1.34-1.85,3.24-3.3,5.7-4.36c2.45-1.05,5.21-1.58,8.27-1.58c4.63,0,8.31,1.16,11.03,3.49c2.72,2.33,4.08,5.6,4.08,9.81v16.29
		c0.02,3.57,0.52,6.26,1.49,8.09v0.59H829.18z M820.88,60.18c1.48,0,2.85-0.33,4.1-0.99c1.25-0.66,2.18-1.55,2.78-2.66v-6.46h-3.75
		c-5.02,0-7.7,1.74-8.02,5.21l-0.03,0.59c0,1.25,0.44,2.28,1.32,3.09C818.15,59.77,819.35,60.18,820.88,60.18z"/>
	<path class="st1" d="M874.96,58.79h25.5v8.37h-38.52v-6.11l25.01-36.02h-24.97v-8.44h37.93v5.97L874.96,58.79z"/>
	<path class="st1" d="M904.07,48.02c0-3.73,0.72-7.05,2.15-9.97c1.44-2.92,3.5-5.18,6.2-6.77c2.7-1.6,5.83-2.4,9.4-2.4
		c5.07,0,9.21,1.55,12.42,4.65c3.21,3.1,5,7.32,5.37,12.64l0.07,2.57c0,5.77-1.61,10.39-4.83,13.88c-3.22,3.49-7.54,5.23-12.96,5.23
		c-5.42,0-9.74-1.74-12.97-5.21c-3.23-3.47-4.85-8.2-4.85-14.17V48.02z M914.11,48.73c0,3.57,0.67,6.3,2.01,8.19
		c1.34,1.89,3.27,2.83,5.77,2.83c2.43,0,4.33-0.93,5.7-2.8c1.37-1.87,2.05-4.85,2.05-8.96c0-3.5-0.68-6.22-2.05-8.14
		c-1.37-1.92-3.29-2.89-5.77-2.89c-2.45,0-4.35,0.96-5.7,2.87C914.78,41.76,914.11,44.72,914.11,48.73z"/>
	<path class="st1" d="M955.09,29.58l0.31,4.34c2.69-3.36,6.29-5.04,10.8-5.04c3.98,0,6.95,1.17,8.89,3.51
		c1.95,2.34,2.94,5.84,2.99,10.49v24.28h-10.04V43.12c0-2.13-0.46-3.68-1.39-4.64c-0.93-0.96-2.47-1.44-4.62-1.44
		c-2.83,0-4.94,1.2-6.36,3.61v26.5h-10.04V29.58H955.09z"/>
	<path class="st1" d="M1007.47,67.16c-0.46-0.9-0.8-2.03-1.01-3.37c-2.43,2.71-5.59,4.06-9.48,4.06c-3.68,0-6.73-1.06-9.15-3.2
		c-2.42-2.13-3.63-4.82-3.63-8.06c0-3.98,1.48-7.04,4.43-9.17c2.95-2.13,7.22-3.21,12.8-3.23h4.62v-2.15c0-1.74-0.45-3.13-1.34-4.17
		s-2.3-1.56-4.22-1.56c-1.69,0-3.02,0.41-3.98,1.22c-0.96,0.81-1.44,1.92-1.44,3.33h-10.04c0-2.18,0.67-4.19,2.01-6.04
		c1.34-1.85,3.24-3.3,5.7-4.36c2.45-1.05,5.21-1.58,8.27-1.58c4.63,0,8.31,1.16,11.03,3.49c2.72,2.33,4.08,5.6,4.08,9.81v16.29
		c0.02,3.57,0.52,6.26,1.49,8.09v0.59H1007.47z M999.17,60.18c1.48,0,2.85-0.33,4.1-0.99c1.25-0.66,2.18-1.55,2.78-2.66v-6.46h-3.75
		c-5.02,0-7.7,1.74-8.02,5.21l-0.03,0.59c0,1.25,0.44,2.28,1.32,3.09C996.44,59.77,997.64,60.18,999.17,60.18z"/>
	<path class="st1" d="M1068.43,53.89c0-1.97-0.69-3.48-2.08-4.53c-1.39-1.05-3.89-2.16-7.5-3.33c-3.61-1.17-6.47-2.32-8.58-3.46
		c-5.74-3.1-8.61-7.28-8.61-12.54c0-2.73,0.77-5.17,2.31-7.31c1.54-2.14,3.75-3.81,6.63-5.02c2.88-1.2,6.12-1.81,9.71-1.81
		c3.61,0,6.83,0.65,9.66,1.96c2.83,1.31,5.02,3.16,6.58,5.54c1.56,2.39,2.34,5.09,2.34,8.13h-10.42c0-2.32-0.73-4.12-2.19-5.4
		s-3.51-1.93-6.15-1.93c-2.55,0-4.53,0.54-5.94,1.62c-1.41,1.08-2.12,2.5-2.12,4.25c0,1.64,0.83,3.02,2.48,4.13
		c1.66,1.11,4.09,2.15,7.31,3.13c5.93,1.78,10.25,3.99,12.96,6.63c2.71,2.64,4.06,5.93,4.06,9.86c0,4.38-1.66,7.81-4.97,10.3
		c-3.31,2.49-7.77,3.73-13.37,3.73c-3.89,0-7.43-0.71-10.63-2.14c-3.2-1.42-5.63-3.37-7.31-5.85c-1.68-2.48-2.52-5.35-2.52-8.61
		h10.46c0,5.58,3.33,8.37,10,8.37c2.48,0,4.41-0.5,5.8-1.51S1068.43,55.7,1068.43,53.89z"/>
	<path class="st1" d="M1107.78,63.34c-2.48,3.01-5.91,4.52-10.28,4.52c-4.03,0-7.1-1.16-9.22-3.47c-2.12-2.31-3.2-5.71-3.25-10.18
		V29.58h10.04v24.31c0,3.92,1.78,5.88,5.35,5.88c3.4,0,5.74-1.18,7.02-3.55V29.58h10.07v37.58h-9.45L1107.78,63.34z"/>
	<path class="st1" d="M1146.2,38.99c-1.37-0.19-2.57-0.28-3.61-0.28c-3.8,0-6.29,1.29-7.47,3.86v24.59h-10.04V29.58h9.48l0.28,4.48
		c2.01-3.45,4.8-5.18,8.37-5.18c1.11,0,2.15,0.15,3.13,0.45L1146.2,38.99z"/>
</g>
<g>
	<path class="st1" d="M212.38,153.3v-50.57h14.28c4.4,0,8.29,0.97,11.67,2.92c3.38,1.95,5.99,4.71,7.83,8.3
		c1.84,3.59,2.77,7.71,2.8,12.37v3.23c0,4.77-0.92,8.95-2.76,12.54c-1.84,3.59-4.47,6.35-7.88,8.27c-3.42,1.92-7.39,2.91-11.93,2.95
		H212.38z M219.05,108.18v39.67h7.02c5.14,0,9.14-1.6,12-4.8c2.86-3.2,4.29-7.75,4.29-13.66v-2.96c0-5.75-1.35-10.21-4.05-13.4
		c-2.7-3.19-6.52-4.8-11.48-4.85H219.05z"/>
	<path class="st1" d="M273.61,153.99c-5.09,0-9.24-1.67-12.43-5.02c-3.2-3.35-4.79-7.82-4.79-13.42v-1.18
		c0-3.73,0.71-7.06,2.14-9.99c1.42-2.93,3.42-5.22,5.97-6.88c2.56-1.66,5.33-2.48,8.32-2.48c4.89,0,8.68,1.61,11.39,4.83
		c2.71,3.22,4.06,7.83,4.06,13.82v2.67h-25.46c0.09,3.71,1.17,6.7,3.25,8.98c2.07,2.28,4.71,3.42,7.9,3.42
		c2.27,0,4.19-0.46,5.77-1.39c1.57-0.93,2.95-2.15,4.13-3.68l3.92,3.06C284.64,151.57,279.91,153.99,273.61,153.99z M272.82,120.3
		c-2.59,0-4.77,0.94-6.53,2.83c-1.76,1.89-2.85,4.53-3.26,7.94h18.83v-0.49c-0.19-3.27-1.07-5.79-2.64-7.59
		C277.63,121.2,275.5,120.3,272.82,120.3z"/>
	<path class="st1" d="M302.69,153.3h-6.42V99.95h6.42V153.3z"/>
	<path class="st1" d="M328.56,153.99c-5.09,0-9.24-1.67-12.43-5.02c-3.2-3.35-4.79-7.82-4.79-13.42v-1.18
		c0-3.73,0.71-7.06,2.14-9.99c1.42-2.93,3.42-5.22,5.97-6.88c2.56-1.66,5.33-2.48,8.32-2.48c4.89,0,8.68,1.61,11.39,4.83
		c2.71,3.22,4.06,7.83,4.06,13.82v2.67h-25.46c0.09,3.71,1.17,6.7,3.25,8.98c2.07,2.28,4.71,3.42,7.9,3.42
		c2.27,0,4.19-0.46,5.77-1.39c1.57-0.93,2.95-2.15,4.13-3.68l3.92,3.06C339.59,151.57,334.86,153.99,328.56,153.99z M327.77,120.3
		c-2.59,0-4.77,0.94-6.53,2.83c-1.76,1.89-2.85,4.53-3.26,7.94h18.83v-0.49c-0.19-3.27-1.07-5.79-2.64-7.59
		C332.58,121.2,330.45,120.3,327.77,120.3z"/>
	<path class="st1" d="M349.13,134.19c0-5.86,1.36-10.52,4.06-13.98s6.3-5.19,10.77-5.19c4.58,0,8.16,1.62,10.73,4.86l0.31-4.17h5.87
		v36.68c0,4.86-1.44,8.7-4.32,11.5s-6.76,4.2-11.62,4.2c-2.71,0-5.36-0.58-7.95-1.74c-2.59-1.16-4.57-2.74-5.94-4.76l3.33-3.86
		c2.76,3.4,6.12,5.11,10.11,5.11c3.13,0,5.56-0.88,7.31-2.64c1.75-1.76,2.62-4.24,2.62-7.43v-3.23c-2.57,2.96-6.08,4.45-10.52,4.45
		c-4.4,0-7.96-1.77-10.68-5.31C350.49,145.14,349.13,140.31,349.13,134.19z M355.59,134.92c0,4.24,0.87,7.57,2.61,9.99
		c1.74,2.42,4.17,3.63,7.29,3.63c4.05,0,7.03-1.84,8.93-5.52v-17.16c-1.97-3.59-4.92-5.38-8.86-5.38c-3.13,0-5.57,1.21-7.33,3.65
		S355.59,130.15,355.59,134.92z"/>
	<path class="st1" d="M413.77,153.3c-0.37-0.74-0.67-2.06-0.9-3.96c-2.99,3.1-6.55,4.65-10.7,4.65c-3.71,0-6.74-1.05-9.12-3.14
		c-2.37-2.09-3.56-4.75-3.56-7.97c0-3.91,1.49-6.95,4.46-9.12s7.16-3.25,12.56-3.25h6.25v-2.95c0-2.25-0.67-4.03-2.01-5.37
		c-1.34-1.33-3.32-2-5.94-2c-2.29,0-4.21,0.58-5.77,1.74c-1.55,1.16-2.33,2.56-2.33,4.2h-6.46c0-1.88,0.67-3.69,2-5.44
		c1.33-1.75,3.14-3.13,5.42-4.15c2.28-1.02,4.79-1.53,7.52-1.53c4.33,0,7.72,1.08,10.18,3.25c2.45,2.17,3.73,5.15,3.82,8.94v17.3
		c0,3.45,0.44,6.19,1.32,8.23v0.56H413.77z M403.1,148.4c2.01,0,3.92-0.52,5.73-1.56c1.81-1.04,3.11-2.4,3.92-4.06v-7.71h-5.04
		c-7.87,0-11.81,2.3-11.81,6.91c0,2.01,0.67,3.59,2.01,4.72C399.27,147.83,400.99,148.4,403.1,148.4z"/>
	<path class="st1" d="M444.33,148.75c2.29,0,4.29-0.69,6.01-2.08c1.71-1.39,2.66-3.13,2.85-5.21h6.08c-0.12,2.15-0.86,4.2-2.22,6.15
		c-1.37,1.94-3.19,3.5-5.47,4.65c-2.28,1.16-4.69,1.74-7.24,1.74c-5.12,0-9.19-1.71-12.21-5.12c-3.02-3.42-4.53-8.09-4.53-14.02
		v-1.08c0-3.66,0.67-6.91,2.01-9.76c1.34-2.85,3.27-5.06,5.78-6.63c2.51-1.57,5.48-2.36,8.91-2.36c4.21,0,7.72,1.26,10.51,3.79
		c2.79,2.52,4.28,5.8,4.46,9.83h-6.08c-0.19-2.43-1.11-4.43-2.76-5.99c-1.66-1.56-3.7-2.34-6.13-2.34c-3.26,0-5.79,1.17-7.59,3.53
		c-1.79,2.35-2.69,5.75-2.69,10.19v1.22c0,4.33,0.89,7.66,2.67,10C438.47,147.58,441.02,148.75,444.33,148.75z"/>
	<path class="st1" d="M466.53,105.75c0-1.04,0.32-1.92,0.96-2.64s1.58-1.08,2.83-1.08c1.25,0,2.2,0.36,2.85,1.08s0.97,1.6,0.97,2.64
		s-0.32,1.91-0.97,2.61c-0.65,0.69-1.6,1.04-2.85,1.04c-1.25,0-2.19-0.35-2.83-1.04C466.85,107.66,466.53,106.79,466.53,105.75z
		 M473.47,153.3h-6.42v-37.58h6.42V153.3z"/>
	<path class="st1" d="M482.05,134.16c0-3.68,0.72-6.99,2.17-9.93c1.45-2.94,3.46-5.21,6.04-6.81s5.53-2.4,8.84-2.4
		c5.12,0,9.26,1.77,12.42,5.31c3.16,3.54,4.74,8.26,4.74,14.14v0.45c0,3.66-0.7,6.94-2.1,9.85c-1.4,2.91-3.4,5.17-6.01,6.79
		c-2.61,1.62-5.6,2.43-8.98,2.43c-5.09,0-9.22-1.77-12.38-5.31c-3.16-3.54-4.74-8.23-4.74-14.07V134.16z M488.51,134.92
		c0,4.17,0.97,7.51,2.9,10.04c1.93,2.52,4.52,3.79,7.76,3.79c3.27,0,5.86-1.28,7.78-3.84c1.92-2.56,2.88-6.14,2.88-10.75
		c0-4.12-0.98-7.46-2.94-10.02s-4.56-3.84-7.8-3.84c-3.17,0-5.73,1.26-7.68,3.79C489.49,126.61,488.51,130.22,488.51,134.92z
		 M502.02,99.95h7.78l-9.31,10.21l-5.18-0.02L502.02,99.95z"/>
	<path class="st1" d="M530.4,115.72l0.21,4.72c2.87-3.61,6.62-5.42,11.25-5.42c7.94,0,11.95,4.48,12.02,13.44v24.83h-6.43v-24.87
		c-0.02-2.71-0.64-4.71-1.86-6.01c-1.21-1.3-3.11-1.94-5.68-1.94c-2.08,0-3.91,0.56-5.49,1.67c-1.58,1.11-2.8,2.57-3.68,4.38v26.78
		h-6.43v-37.58H530.4z"/>
	<path class="st1" d="M587.19,147.85h28.93v5.45h-36.82v-5l27.72-40.12h-27.27v-5.45h35.25v4.87L587.19,147.85z"/>
	<path class="st1" d="M621.34,134.16c0-3.68,0.72-6.99,2.17-9.93c1.45-2.94,3.46-5.21,6.04-6.81s5.53-2.4,8.84-2.4
		c5.12,0,9.26,1.77,12.42,5.31c3.16,3.54,4.74,8.26,4.74,14.14v0.45c0,3.66-0.7,6.94-2.1,9.85c-1.4,2.91-3.4,5.17-6.01,6.79
		c-2.61,1.62-5.6,2.43-8.98,2.43c-5.09,0-9.22-1.77-12.38-5.31c-3.16-3.54-4.74-8.23-4.74-14.07V134.16z M627.8,134.92
		c0,4.17,0.97,7.51,2.9,10.04c1.93,2.52,4.52,3.79,7.76,3.79c3.27,0,5.86-1.28,7.78-3.84c1.92-2.56,2.88-6.14,2.88-10.75
		c0-4.12-0.98-7.46-2.94-10.02s-4.56-3.84-7.8-3.84c-3.17,0-5.73,1.26-7.68,3.79C628.77,126.61,627.8,130.22,627.8,134.92z"/>
	<path class="st1" d="M669.68,115.72l0.21,4.72c2.87-3.61,6.62-5.42,11.25-5.42c7.94,0,11.95,4.48,12.02,13.44v24.83h-6.43v-24.87
		c-0.02-2.71-0.64-4.71-1.86-6.01c-1.21-1.3-3.11-1.94-5.68-1.94c-2.08,0-3.91,0.56-5.49,1.67c-1.58,1.11-2.8,2.57-3.68,4.38v26.78
		h-6.43v-37.58H669.68z"/>
	<path class="st1" d="M726.06,153.3c-0.37-0.74-0.67-2.06-0.9-3.96c-2.99,3.1-6.55,4.65-10.7,4.65c-3.71,0-6.74-1.05-9.12-3.14
		c-2.37-2.09-3.56-4.75-3.56-7.97c0-3.91,1.49-6.95,4.46-9.12s7.16-3.25,12.56-3.25h6.25v-2.95c0-2.25-0.67-4.03-2.01-5.37
		c-1.34-1.33-3.32-2-5.94-2c-2.29,0-4.21,0.58-5.77,1.74c-1.55,1.16-2.33,2.56-2.33,4.2h-6.46c0-1.88,0.67-3.69,2-5.44
		c1.33-1.75,3.14-3.13,5.42-4.15c2.28-1.02,4.79-1.53,7.52-1.53c4.33,0,7.72,1.08,10.18,3.25c2.45,2.17,3.73,5.15,3.82,8.94v17.3
		c0,3.45,0.44,6.19,1.32,8.23v0.56H726.06z M715.39,148.4c2.01,0,3.92-0.52,5.73-1.56c1.81-1.04,3.11-2.4,3.92-4.06v-7.71h-5.04
		c-7.87,0-11.81,2.3-11.81,6.91c0,2.01,0.67,3.59,2.01,4.72C711.56,147.83,713.29,148.4,715.39,148.4z"/>
	<path class="st1" d="M775.07,130.76c-5.72-1.64-9.88-3.67-12.49-6.06c-2.61-2.4-3.91-5.35-3.91-8.87c0-3.98,1.59-7.28,4.78-9.88
		c3.18-2.61,7.32-3.91,12.42-3.91c3.47,0,6.57,0.67,9.29,2.01c2.72,1.34,4.83,3.2,6.32,5.56s2.24,4.94,2.24,7.75h-6.7
		c0-3.07-0.97-5.48-2.92-7.23c-1.95-1.75-4.69-2.63-8.23-2.63c-3.29,0-5.85,0.73-7.69,2.18s-2.76,3.46-2.76,6.04
		c0,2.07,0.87,3.81,2.62,5.24c1.75,1.43,4.72,2.73,8.93,3.92c4.2,1.18,7.49,2.49,9.86,3.91c2.37,1.42,4.13,3.09,5.28,4.98
		c1.15,1.9,1.72,4.13,1.72,6.7c0,4.1-1.6,7.38-4.79,9.85c-3.2,2.47-7.47,3.7-12.82,3.7c-3.47,0-6.72-0.67-9.73-2
		c-3.01-1.33-5.33-3.16-6.96-5.47s-2.45-4.94-2.45-7.88h6.7c0,3.06,1.13,5.47,3.39,7.24s5.27,2.66,9.05,2.66
		c3.52,0,6.22-0.72,8.09-2.15c1.88-1.44,2.81-3.39,2.81-5.87s-0.87-4.39-2.6-5.75C782.78,133.41,779.63,132.08,775.07,130.76z"/>
	<path class="st1" d="M824.56,149.58c-2.5,2.94-6.17,4.41-11.01,4.41c-4.01,0-7.06-1.16-9.15-3.49c-2.1-2.33-3.16-5.77-3.18-10.33
		v-24.45h6.43v24.28c0,5.7,2.32,8.54,6.95,8.54c4.91,0,8.17-1.83,9.79-5.49v-27.33h6.43v37.58h-6.11L824.56,149.58z"/>
	<path class="st1" d="M858.74,121.48c-0.97-0.16-2.03-0.24-3.16-0.24c-4.21,0-7.08,1.79-8.58,5.38v26.68h-6.43v-37.58h6.25l0.1,4.34
		c2.11-3.36,5.09-5.04,8.96-5.04c1.25,0,2.2,0.16,2.85,0.49V121.48z"/>
	<path class="st1" d="M916.82,108.18h-16.26v45.12h-6.63v-45.12H877.7v-5.45h39.11V108.18z"/>
	<path class="st1" d="M942.59,153.3c-0.37-0.74-0.67-2.06-0.9-3.96c-2.99,3.1-6.55,4.65-10.7,4.65c-3.71,0-6.74-1.05-9.12-3.14
		c-2.37-2.09-3.56-4.75-3.56-7.97c0-3.91,1.49-6.95,4.46-9.12s7.16-3.25,12.56-3.25h6.25v-2.95c0-2.25-0.67-4.03-2.01-5.37
		c-1.34-1.33-3.32-2-5.94-2c-2.29,0-4.21,0.58-5.77,1.74c-1.55,1.16-2.33,2.56-2.33,4.2h-6.46c0-1.88,0.67-3.69,2-5.44
		c1.33-1.75,3.14-3.13,5.42-4.15c2.28-1.02,4.79-1.53,7.52-1.53c4.33,0,7.72,1.08,10.18,3.25c2.45,2.17,3.73,5.15,3.82,8.94v17.3
		c0,3.45,0.44,6.19,1.32,8.23v0.56H942.59z M931.92,148.4c2.01,0,3.92-0.52,5.73-1.56c1.81-1.04,3.11-2.4,3.92-4.06v-7.71h-5.04
		c-7.87,0-11.81,2.3-11.81,6.91c0,2.01,0.67,3.59,2.01,4.72C928.09,147.83,929.82,148.4,931.92,148.4z"/>
	<path class="st1" d="M964.12,115.72l0.17,4.17c2.75-3.24,6.47-4.86,11.15-4.86c5.26,0,8.83,2.01,10.73,6.04
		c1.25-1.81,2.88-3.26,4.88-4.38c2-1.11,4.37-1.67,7.1-1.67c8.24,0,12.43,4.37,12.57,13.09v25.18h-6.43v-24.8
		c0-2.69-0.61-4.7-1.84-6.03c-1.23-1.33-3.29-2-6.18-2c-2.39,0-4.37,0.71-5.94,2.14c-1.58,1.42-2.49,3.34-2.74,5.75v24.94h-6.46
		v-24.63c0-5.46-2.67-8.2-8.02-8.2c-4.21,0-7.1,1.79-8.65,5.38v27.44h-6.43v-37.58H964.12z"/>
	<path class="st1" d="M1043.63,153.3c-0.37-0.74-0.67-2.06-0.9-3.96c-2.99,3.1-6.55,4.65-10.7,4.65c-3.71,0-6.74-1.05-9.12-3.14
		c-2.37-2.09-3.56-4.75-3.56-7.97c0-3.91,1.49-6.95,4.46-9.12s7.16-3.25,12.56-3.25h6.25v-2.95c0-2.25-0.67-4.03-2.01-5.37
		c-1.34-1.33-3.32-2-5.94-2c-2.29,0-4.21,0.58-5.77,1.74c-1.55,1.16-2.33,2.56-2.33,4.2h-6.46c0-1.88,0.67-3.69,2-5.44
		c1.33-1.75,3.14-3.13,5.42-4.15c2.28-1.02,4.79-1.53,7.52-1.53c4.33,0,7.72,1.08,10.18,3.25c2.45,2.17,3.73,5.15,3.82,8.94v17.3
		c0,3.45,0.44,6.19,1.32,8.23v0.56H1043.63z M1032.96,148.4c2.01,0,3.92-0.52,5.73-1.56c1.81-1.04,3.11-2.4,3.92-4.06v-7.71h-5.04
		c-7.87,0-11.81,2.3-11.81,6.91c0,2.01,0.67,3.59,2.01,4.72C1029.13,147.83,1030.86,148.4,1032.96,148.4z"/>
	<path class="st1" d="M1082.32,149.58c-2.5,2.94-6.17,4.41-11.01,4.41c-4.01,0-7.06-1.16-9.15-3.49c-2.1-2.33-3.16-5.77-3.18-10.33
		v-24.45h6.43v24.28c0,5.7,2.32,8.54,6.95,8.54c4.91,0,8.17-1.83,9.79-5.49v-27.33h6.43v37.58h-6.11L1082.32,149.58z"/>
	<path class="st1" d="M1105.32,153.3h-6.42V99.95h6.42V153.3z"/>
	<path class="st1" d="M1115.63,105.75c0-1.04,0.32-1.92,0.96-2.64s1.58-1.08,2.83-1.08c1.25,0,2.2,0.36,2.85,1.08
		s0.97,1.6,0.97,2.64s-0.32,1.91-0.97,2.61c-0.65,0.69-1.6,1.04-2.85,1.04c-1.25,0-2.19-0.35-2.83-1.04
		C1115.95,107.66,1115.63,106.79,1115.63,105.75z M1122.58,153.3h-6.42v-37.58h6.42V153.3z"/>
	<path class="st1" d="M1164.61,134.92c0,5.72-1.31,10.33-3.92,13.82c-2.62,3.5-6.16,5.25-10.63,5.25c-4.56,0-8.15-1.45-10.77-4.34
		v18.1h-6.43v-52.03h5.87l0.31,4.17c2.62-3.24,6.25-4.86,10.91-4.86c4.51,0,8.09,1.7,10.71,5.11c2.63,3.4,3.94,8.14,3.94,14.21
		V134.92z M1158.18,134.19c0-4.24-0.9-7.58-2.71-10.04c-1.81-2.45-4.28-3.68-7.43-3.68c-3.89,0-6.81,1.72-8.75,5.17v17.96
		c1.92,3.43,4.86,5.14,8.82,5.14c3.08,0,5.53-1.22,7.35-3.66C1157.27,142.64,1158.18,139.01,1158.18,134.19z"/>
	<path class="st1" d="M1195.97,153.3c-0.37-0.74-0.67-2.06-0.9-3.96c-2.99,3.1-6.55,4.65-10.7,4.65c-3.71,0-6.74-1.05-9.12-3.14
		c-2.37-2.09-3.56-4.75-3.56-7.97c0-3.91,1.49-6.95,4.46-9.12s7.16-3.25,12.56-3.25h6.25v-2.95c0-2.25-0.67-4.03-2.01-5.37
		c-1.34-1.33-3.32-2-5.94-2c-2.29,0-4.21,0.58-5.77,1.74c-1.55,1.16-2.33,2.56-2.33,4.2h-6.46c0-1.88,0.67-3.69,2-5.44
		c1.33-1.75,3.14-3.13,5.42-4.15c2.28-1.02,4.79-1.53,7.52-1.53c4.33,0,7.72,1.08,10.18,3.25c2.45,2.17,3.73,5.15,3.82,8.94v17.3
		c0,3.45,0.44,6.19,1.32,8.23v0.56H1195.97z M1185.31,148.4c2.01,0,3.92-0.52,5.73-1.56c1.81-1.04,3.11-2.4,3.92-4.06v-7.71h-5.04
		c-7.87,0-11.81,2.3-11.81,6.91c0,2.01,0.67,3.59,2.01,4.72C1181.48,147.83,1183.2,148.4,1185.31,148.4z"/>
	<path class="st1" d="M1233.34,143.33c0-1.74-0.65-3.08-1.96-4.05c-1.31-0.96-3.59-1.79-6.84-2.48c-3.25-0.69-5.84-1.53-7.75-2.5
		s-3.32-2.13-4.24-3.47c-0.92-1.34-1.37-2.94-1.37-4.79c0-3.08,1.3-5.68,3.91-7.81c2.61-2.13,5.93-3.2,9.99-3.2
		c4.26,0,7.72,1.1,10.37,3.3c2.65,2.2,3.98,5.01,3.98,8.44h-6.46c0-1.76-0.75-3.28-2.24-4.55c-1.49-1.27-3.38-1.91-5.64-1.91
		c-2.34,0-4.17,0.51-5.49,1.53c-1.32,1.02-1.98,2.35-1.98,3.99c0,1.55,0.61,2.72,1.84,3.51c1.23,0.79,3.44,1.54,6.65,2.26
		s5.81,1.58,7.8,2.57c1.99,1,3.47,2.19,4.43,3.59c0.96,1.4,1.44,3.11,1.44,5.12c0,3.36-1.34,6.05-4.03,8.08
		c-2.69,2.03-6.17,3.04-10.46,3.04c-3.01,0-5.67-0.53-7.99-1.6c-2.32-1.06-4.13-2.55-5.44-4.46c-1.31-1.91-1.96-3.98-1.96-6.2h6.43
		c0.12,2.15,0.98,3.86,2.59,5.12c1.61,1.26,3.73,1.89,6.37,1.89c2.43,0,4.38-0.49,5.85-1.48S1233.34,144.97,1233.34,143.33z"/>
</g>
</svg>
